<?xml version="1.0" encoding="utf-8"?>
<!-- Generator: Adobe Illustrator 19.0.0, SVG Export Plug-In . SVG Version: 6.00 Build 0)  -->
<!DOCTYPE svg PUBLIC "-//W3C//DTD SVG 1.1//EN" "http://www.w3.org/Graphics/SVG/1.1/DTD/svg11.dtd">
<svg version="1.1" id="Layer_1" xmlns="http://www.w3.org/2000/svg" xmlns:xlink="http://www.w3.org/1999/xlink" x="0px" y="0px"
	 viewBox="0 0 48 48" style="enable-background:new 0 0 48 48;" xml:space="preserve">
<style type="text/css">
	.st0{fill:#DDB0B4;fill-opacity:0;}
	.st1{fill:#474655;}
</style>
<rect class="st0" width="48" height="48"/>
<path class="st1" d="M24,4C13,4,4,13,4,24s9,20,20,20s20-9,20-20S35,4,24,4z M24,38.5c-1.4,0-2.5-1.1-2.5-2.5s1.1-2.5,2.5-2.5
	s2.5,1.1,2.5,2.5S25.4,38.5,24,38.5z M30,22.3c-0.2,0.2-0.5,0.5-0.8,0.8C28,24.4,26,26.4,26,29v1h-4v-1c0-4.2,2.9-7.2,4.4-8.7
	c0.2-0.2,0.4-0.4,0.6-0.6c0.6-0.7,1-1.7,1-2.7c0-2.2-1.8-4-4-4s-4,1.8-4,4h-4c0-4.4,3.6-8,8-8s8,3.6,8,8C32,19,31.3,20.9,30,22.3z"
	/>
</svg>
