<?xml version="1.0" encoding="utf-8"?>
<!-- Generator: Adobe Illustrator 18.1.1, SVG Export Plug-In . SVG Version: 6.00 Build 0)  -->
<svg version="1.1" id="Layer_1" xmlns="http://www.w3.org/2000/svg" xmlns:xlink="http://www.w3.org/1999/xlink" x="0px" y="0px"
	 viewBox="0 0 40 40" enable-background="new 0 0 40 40" xml:space="preserve">
<g>
	<path fill="#363545" d="M32.7,23l-7-2c-1.3,1.8-3.4,3-5.7,3s-4.5-1.2-5.7-3l-7,2C3,24.2,0,28.1,0,32.6V38c0,1.1,0.9,2,2,2h18h18
		c1.1,0,2-0.9,2-2v-5.4C40,28.1,37,24.2,32.7,23z"/>
	<path fill="#363545" d="M17.3,19.1C18.5,20,19,20,20,20s1.5,0,2.7-0.9c1.2-0.9,2.2-1.8,3-3.1c0.9-1.3,1.3-2.5,1.3-4V7
		c0-3.9-3.1-7-7-7s-7,3.1-7,7v5c0,1.5,0.4,2.7,1.3,4C15.1,17.3,16.1,18.2,17.3,19.1z"/>
</g>
<rect fill="none" width="40" height="40"/>
<g>
</g>
<g>
</g>
<g>
</g>
<g>
</g>
<g>
</g>
<g>
</g>
<g>
</g>
<g>
</g>
<g>
</g>
<g>
</g>
<g>
</g>
<g>
</g>
<g>
</g>
<g>
</g>
<g>
</g>
</svg>
