<?xml version="1.0" encoding="utf-8"?>
<!-- Generator: Adobe Illustrator 18.1.1, SVG Export Plug-In . SVG Version: 6.00 Build 0)  -->
<svg version="1.1" id="Layer_1" xmlns="http://www.w3.org/2000/svg" xmlns:xlink="http://www.w3.org/1999/xlink" x="0px" y="0px"
	 viewBox="0 0 40 40" enable-background="new 0 0 40 40" xml:space="preserve">
<rect opacity="0" fill="#EB008B" width="40" height="40"/>
<g>
	<path fill="#363545" d="M26,4c5.5,0,10,4.5,10,10s-4.5,10-10,10s-10-4.5-10-10S20.5,4,26,4 M26,0c-7.7,0-14,6.3-14,14s6.3,14,14,14
		s14-6.3,14-14S33.7,0,26,0L26,0z"/>
</g>
<line fill="none" stroke="#363545" stroke-width="4" stroke-miterlimit="10" x1="17" y1="23" x2="3" y2="37"/>
<path fill="#363545" d="M5.2,39l10-10c0.8-0.8,0.8-2,0-2.8l-1.4-1.4c-0.8-0.8-2-0.8-2.8,0l-10,10c-0.8,0.8-0.8,2,0,2.8L2.4,39
	C3.2,39.8,4.5,39.8,5.2,39z"/>
<g>
</g>
<g>
</g>
<g>
</g>
<g>
</g>
<g>
</g>
<g>
</g>
<g>
</g>
<g>
</g>
<g>
</g>
<g>
</g>
<g>
</g>
<g>
</g>
<g>
</g>
<g>
</g>
<g>
</g>
</svg>
