<?xml version="1.0" encoding="utf-8"?>
<!-- Generator: Adobe Illustrator 20.1.0, SVG Export Plug-In . SVG Version: 6.00 Build 0)  -->
<svg version="1.1" id="Layer_1" xmlns="http://www.w3.org/2000/svg" xmlns:xlink="http://www.w3.org/1999/xlink" x="0px" y="0px"
	 viewBox="0 0 180 28" style="enable-background:new 0 0 180 28;" xml:space="preserve">
<style type="text/css">
	.st0{fill:#005F9E;}
	.st1{fill:#FFBE00;}
	.st2{fill:#009AD9;}
	.st3{fill:#363545;}
</style>
<path class="st0" d="M23.8,3.3l-9.4-3.4L5,3.3C5.4,4.9,6,6.5,6.5,8c1.6-0.8,3.1-1.4,4.8-2C15.4,4.5,19.6,3.6,23.8,3.3z"/>
<path class="st1" d="M18,18.7c-1.3,1.1-2.6,2.3-3.8,3.5c1.6,2.1,3.3,4.1,5.1,5.9l7.6-6.4l1.7-9.8C25,13.7,21.4,15.9,18,18.7z"/>
<path class="st2" d="M6.5,8.1C4.2,9.2,2.1,10.5,0,11.9l1.7,9.8l7.6,6.4c1.5-2.1,3.1-4,4.9-5.9c-1.3-1.8-2.6-3.6-3.7-5.6
	C8.9,13.9,7.6,11,6.5,8.1z"/>
<path class="st3" d="M40.9,20.5v-13h-4.6V5.9h11v1.6h-4.7v13H40.9z"/>
<path class="st3" d="M45.6,20.5V10.1h1.7V12h0c0.8-1.2,2-2.2,4-2.2h0.2l-0.1,1.6c-0.1,0-0.4,0-0.5,0c-1.7,0-2.9,0.9-3.7,2.3v6.7
	L45.6,20.5L45.6,20.5L45.6,20.5z"/>
<path class="st3" d="M52.8,7.9V6.2h1.8v1.7H52.8z M52.8,20.5V10.1h1.7v10.4H52.8z"/>
<path class="st3" d="M56.8,20.5V10.1h1.7v1.6c1-1,2.2-1.8,3.8-1.8c1.8,0,2.5,0.7,2.8,1.8c1-1,2.3-1.8,3.8-1.8c2.1,0,3,1.3,3,3.1v7.5
	h-1.7v-7.1c0-1.4-0.5-2-1.8-2c-1.2,0-2.1,0.6-3.2,1.7v7.5h-1.7v-7.1c0-1.4-0.5-2-1.8-2c-1.1,0-2.1,0.6-3.2,1.7v7.5L56.8,20.5
	L56.8,20.5L56.8,20.5z"/>
<path class="st3" d="M75.8,19.2v1.3h-1.7V5.9h1.7v5.6c0.8-0.9,1.9-1.7,3.4-1.7c2.4,0,4.2,1.8,4.2,5.4c0,3.6-1.9,5.4-4.4,5.4
	C77.8,20.7,76.7,20.1,75.8,19.2z M81.8,15.3c0-2.7-1.3-4-2.9-4c-1.2,0-2.2,0.6-3,1.6v4.8c0.9,1,1.9,1.6,3,1.6
	C80.7,19.3,81.8,18.1,81.8,15.3z"/>
<path class="st3" d="M85.3,20.5V5.9H87v14.6L85.3,20.5L85.3,20.5z"/>
<path class="st3" d="M88.7,15.3c0-3.8,2.5-5.4,4.7-5.4c2.5,0,4.3,1.7,4.3,5.5v0.3h-7.4c0.1,2.3,1.4,3.6,3.1,3.6
	c1.5,0,2.3-0.6,3.1-1.7l1,0.9c-1,1.4-2.3,2.2-4.2,2.2C90.9,20.7,88.7,18.9,88.7,15.3z M96.1,14.4c-0.1-1.9-1-3.1-2.7-3.1
	c-1.4,0-2.7,1-3,3.1H96.1z"/>
<path class="st3" d="M101.3,13.2c0-4.6,2.5-7.5,6.2-7.5c3.1,0,4.7,1.8,5.4,4.5l-1.7,0.5c-0.6-2.2-1.6-3.3-3.8-3.3
	c-2.7,0-4.4,2.3-4.4,5.9c0,3.9,1.7,6.1,4.4,6.1c2.1,0,3.4-1.2,4-3.5l1.6,0.4c-0.7,2.9-2.6,4.7-5.6,4.7
	C103.8,20.8,101.3,17.9,101.3,13.2z"/>
<path class="st3" d="M114.1,15.3c0-3.6,2.3-5.4,4.8-5.4c2.5,0,4.8,1.8,4.8,5.4c0,3.6-2.3,5.4-4.8,5.4
	C116.4,20.7,114.1,18.9,114.1,15.3z M122,15.3c0-2.2-1-4-3.1-4c-2,0-3.1,1.6-3.1,4c0,2.2,1,4,3.1,4C120.9,19.3,122,17.7,122,15.3z"
	/>
<path class="st3" d="M125.4,20.5V10.1h1.7v1.6c0.9-0.9,2.2-1.8,3.9-1.8c2,0,3.1,1.1,3.1,3.1v7.5h-1.7v-7.1c0-1.4-0.6-2-1.9-2
	c-1.3,0-2.3,0.6-3.4,1.7v7.5L125.4,20.5L125.4,20.5L125.4,20.5z"/>
<path class="st3" d="M136.2,20.5V10.1h1.7v1.6c0.9-0.9,2.2-1.8,3.9-1.8c2,0,3.1,1.1,3.1,3.1v7.5h-1.7v-7.1c0-1.4-0.6-2-1.9-2
	c-1.3,0-2.3,0.6-3.4,1.7v7.5L136.2,20.5L136.2,20.5L136.2,20.5z"/>
<path class="st3" d="M146.4,15.3c0-3.8,2.5-5.4,4.7-5.4c2.5,0,4.3,1.7,4.3,5.5v0.3h-7.4c0.1,2.3,1.4,3.6,3.1,3.6
	c1.5,0,2.3-0.6,3.1-1.7l1,0.9c-1,1.4-2.3,2.2-4.2,2.2C148.7,20.7,146.4,18.9,146.4,15.3z M153.8,14.4c-0.1-1.9-1-3.1-2.7-3.1
	c-1.4,0-2.7,1-3,3.1H153.8z"/>
<path class="st3" d="M156.5,15.3c0-3.8,2.5-5.4,4.8-5.4c2.3,0,3.5,1.4,4.1,2.9l-1.4,0.6c-0.5-1.3-1.3-2.1-2.7-2.1c-1.5,0-3,1-3,4
	c0,2.6,1.2,4,3,4c1.3,0,2.1-0.6,2.8-2.1l1.4,0.6c-0.8,1.7-2,3-4.3,3C158.7,20.7,156.5,18.9,156.5,15.3z"/>
<path class="st3" d="M167.6,18v-6.5h-1.8v-1.4h1.8V6.4h1.7v3.7h2.7v1.4h-2.7v6.1c0,1.1,0.3,1.7,1.6,1.7c0.4,0,0.8-0.1,1.1-0.1v1.4
	c-0.3,0.1-0.9,0.1-1.5,0.1C168.3,20.6,167.6,19.8,167.6,18z"/>
<g>
	<path class="st3" d="M173.7,9h-0.4V6.8h-0.8V6.4h2v0.4h-0.8V9z M175.8,9l-0.7-2h0l0,0.5V9h-0.4V6.4h0.7l0.7,2l0.7-2h0.7V9H177V7.5
		l0-0.5h0l-0.8,2H175.8z"/>
</g>
</svg>
